<svg xmlns="http://www.w3.org/2000/svg" xmlns:xlink="http://www.w3.org/1999/xlink" width="536" height="231" viewBox="0 0 536 231">
    <defs>
        <linearGradient id="c" x1="-12.194%" y1="121.212%" y2="8.294%">
            <stop offset="0%" stop-color="#FF8960"/>
            <stop offset="100%" stop-color="#FF62A5"/>
        </linearGradient>
        <rect id="a" width="536" height="231" rx="0"/>
        <linearGradient id="d" x1="0%" x2="101.427%" y1="50%" y2="50%">
            <stop offset="0%" stop-color="#FF8960"/>
            <stop offset="100%" stop-color="#FF62A5"/>
        </linearGradient>
    </defs>
    <g fill="none" fill-rule="evenodd">
        <mask id="e" fill="#fff">
            <use xlink:href="#a"/>
        </mask>
        <g fill-rule="nonzero">
            <use fill="#000" filter="url(#b)" xlink:href="#a"/>
            <use fill="url(#c)" xlink:href="#a"/>
        </g>
        <ellipse cx="281.283" cy="215.392" fill="url(#d)" fill-rule="nonzero" mask="url(#e)" rx="178.146" ry="177.932"/>
        <ellipse cx="485.994" cy="4.682" fill="url(#d)" fill-rule="nonzero" mask="url(#e)" rx="64.07" ry="63.993"/>
        <ellipse cx="173.458" cy="67.115" fill="#FF8960" fill-rule="nonzero" mask="url(#e)" rx="178.146" ry="177.932"/>
        <g mask="url(#e)">
            <path fill="#EEC7A4" d="M34.549 88.564c-3.475-2.86-6.152-6.646-6.642-11.33-1.412-13.494 17.727-13.846 22.535-7.757 4.81 6.09 7.388 23.23 2.918 25.258-1.782.809-5.967.335-10.443-1.382l5.699 17.463-15.003 2.645.936-24.897z"/>
            <path fill="#191847" d="M33.925 91.768c-3.355-8.015-9.722-12.759-9.56-16.634.107-2.584 1.29-4.387 3.548-5.41.354-5.147 3.93-7.94 10.726-8.38 10.196-.658 17.03 2.404 16 11.975-2.424.427-5.503.07-9.284 2.28-1.2.7-1.858 2.334-1.975 4.9l-1.828.323c-2.29-2.617-4.23-3.386-5.817-2.305-1.588 1.08-1.647 3.037-.178 5.867l.313 7.041-1.945.343z"/>
            <path fill="#D4A181" d="M40.557 162.863l49.769 76.981 37.574 65.239 7.594-.266-64.135-143.03z"/>
            <path fill="#E4E4E4" d="M122.897 302.963c-.468 1.524-.688 2.688-.66 3.493.04 1.141.288 2.8.744 4.977l35.693-1.247c.82-3.099.227-4.736-1.78-4.91a197.771 197.771 0 0 1-5.003-.49l-16.498-6.675a1 1 0 0 0-1.312.579l-.845 2.27c-1.82.928-3.308 1.412-4.465 1.453-.809.028-1.893-.216-3.253-.732a2 2 0 0 0-2.62 1.282z"/>
            <path fill="#69A1AC" d="M117.738 294.78l14.489-4.94c-7.086-18.959-15.686-39.793-25.802-62.504s-20.892-44.593-32.328-65.644l-41.36 1.444c12.83 26.686 26.288 50.872 40.374 72.556 14.086 21.684 28.962 41.38 44.627 59.089z"/>
            <path fill="#D4A181" d="M37.467 162.97c-3.474 27.785-10.8 63.383-11.57 64.5-.514.745-19.675 7.92-57.483 21.523l1.874 6.64c45.368-8.172 69.215-14.116 71.543-17.832 3.492-5.573 20.373-49.23 26.57-75.91l-30.934 1.08z"/>
            <path fill="#89C5CC" d="M-18.347 242.735l3.265 10.685c34.21 1.8 55.03-1.09 62.463-8.674 7.434-7.583 15.242-35.23 23.424-82.94l-39.438 1.378c-4.878 39.004-7.656 59.333-8.336 60.987-.68 1.654-14.472 7.842-41.378 18.564z"/>
            <path fill="#E4E4E4" d="M-30.574 246.02c-1.581-.196-2.766-.211-3.554-.044-1.117.238-2.708.77-4.772 1.598l7.426 34.934c3.194.27 4.703-.599 4.527-2.606a197.771 197.771 0 0 1-.388-5.012l3.71-17.406a1 1 0 0 0-.798-1.192l-2.383-.438c-1.23-1.63-1.965-3.012-2.205-4.144-.169-.792-.117-1.902.155-3.33a2 2 0 0 0-1.718-2.36z"/>
            <g>
                <path fill="#EEC7A4" d="M63.822 121.408l19.61-15.667c2.855-4.905 5.825-8.848 8.91-11.827.992-.634 2.816-1.233 1.611 2.17-1.204 3.403-2.317 7.037-1.257 7.834 1.06.796 3.047-.928 4.39.468.896.932-2.608 3.27-10.511 7.015l-13.23 17.163-9.523-7.156z"/>
                <path fill="#EF9E58" d="M52.79 120.633c7.586-1.42 17.438-4.806 27.046-13.552l5.91 8.688c-6.158 8.69-15.577 16.6-24.793 17.96-7.262 1.072-12.491-6.987-8.163-13.096z"/>
                <path fill="#FECA22" d="M127.941 95.516l-2.155.38c-1.189-1.01-2.681-1.89-4.508-2.578-8.964-3.372-22.245-1.03-29.515 5.204-1.48 1.272-2.585 2.61-3.357 3.965l-2.1.37.817 4.626.013-.002c.218 3.509 2.833 6.674 7.707 8.509 8.964 3.372 22.245 1.03 29.515-5.204 3.955-3.392 5.328-7.26 4.332-10.632l.067-.012-.816-4.626z"/>
                <path fill="#FFAD33" d="M95.02 96.777c-.611.343-1.197.702-1.76 1.086l3.216 18.234c.66.169 1.333.308 2.025.418l-3.48-19.738zM89.714 99.245l2.738 15.527c.634.401 1.302.781 2.046 1.115.036.017.076.028.109.043l-3.263-18.504c-.025.028-.06.052-.087.077a16.633 16.633 0 0 0-1.543 1.742M98.262 93.662c-.619.244-1.221.513-1.81.797l3.969 22.51c.651.067 1.308.111 1.974.132l-4.133-23.44zM122.975 94.392l2.61 14.804c.637-.687 1.15-1.39 1.584-2.098l-1.99-11.284a13.282 13.282 0 0 0-2.204-1.422M128.1 104.937c.189-1.107.15-2.195-.155-3.23l.06-.011-.747-4.243-.464.082 1.306 7.402zM116.984 90.983a25.605 25.605 0 0 0-1.998-.27l4.133 23.439a24.357 24.357 0 0 0 1.786-.937l-3.92-22.232zM90.279 112.877l-1.958-11.102-1.863.328.835 4.738.013-.002c.162 2.209 1.167 4.298 2.973 6.038M120.929 93.214a20.474 20.474 0 0 0-2.064-.64l3.48 19.737c.602-.41 1.177-.847 1.72-1.308l-3.136-17.79zM103.166 92.797c-.63.16-1.25.337-1.86.532l4.28 24.277c.64-.025 1.284-.07 1.93-.136l-4.35-24.673zM111.416 116.736l-4.334-24.583c-.636.078-1.271.173-1.9.29l4.35 24.67c.63-.105 1.26-.23 1.884-.377M112.028 91.538c-.644-.01-1.296.005-1.944.04l4.35 24.672a30.78 30.78 0 0 0 1.84-.625l-4.246-24.087z"/>
                <path fill="#F9E759" d="M120.192 87.15c-8.96-3.373-22.234-1.032-29.5 5.201-7.265 6.234-5.879 14.096 3.08 17.466 8.96 3.375 22.235 1.035 29.5-5.202 7.266-6.23 5.88-14.092-3.08-17.465"/>
                <path fill="#FFAD33" d="M119.48 88.176c-8.4-2.977-20.891-.774-27.766 4.896-6.872 5.67-5.625 12.745 2.772 15.72 8.4 2.977 20.89.775 27.765-4.896 6.873-5.667 5.625-12.742-2.772-15.72"/>
                <path fill="#F9E759" d="M118.766 89.201c-7.834-2.58-19.55-.513-26.032 4.59-6.478 5.106-5.37 11.395 2.464 13.974 7.837 2.582 19.554.516 26.032-4.59 6.479-5.103 5.37-11.392-2.464-13.974"/>
                <path fill="#FFA000" d="M111.984 96.475l-.269.237c-1.075.939-3.124 1.338-4.474.872l-1.166-.404 3.739-3.14 1.835.657c.499.177.818.455.877.755.056.303-.14.674-.542 1.023m-1.86 5.443l-.411.346c-1.096.917-3.16 1.287-4.505.805l-4.309-1.546 3.806-3.192 1.523.528c.028.009 2.657.949 4.002 1.45.188.068.508.228.555.495.04.237-.112.654-.66 1.114m3.01-8.151l.948-.737-1.705-.606-.863.594-.338-.123.884-.57-1.817-.647-.74.62-1.152-.415-1.37 1.167 1.16.388-3.76 3.158-1.193-.41-1.387 1.167 1.21.394-3.784 3.175-1.203-.43-1.38 1.145 1.269.445-1.007.82 1.625.587 1.007-.822.343.122-1 .804 1.699.615.969-.82 3.125 1.12c.93.333 2.051.381 3.131.19 1.094-.192 2.141-.628 2.904-1.268l.412-.345c.905-.759 1.336-1.685 1.187-2.544-.126-.732-.641-1.307-1.45-1.632.708-.245 1.362-.601 1.875-1.05l.274-.238c.818-.714 1.198-1.61 1.038-2.456-.104-.543-.425-1.027-.912-1.398"/>
                <path fill="#EEC7A4" d="M99.565 125.407l8.611-6.898c.443-5.306 1.592-8.139 3.446-8.499 1.312-.914-.046 5.932 2.564 4.898 2.61-1.033 8.357-7.097 9.672-6.303 1.944 1.174 1.238 5.957-.136 8.517-2.568 4.785-5.054 6.704-11.493 9.78-3.367 1.607-6.847 4.254-10.44 7.939l-2.224-9.434z"/>
                <path fill="#FCBE57" d="M65.692 133.962c8.421.582 21.534-4.168 39.338-14.25 6.422 8.88 9.82 15.419 10.194 19.617-14.796 11.352-28.093 17.595-39.552 19.873 1.564 6.737 1.875 13.355.126 19.76-3.594 13.17-39.178 7.835-50.084 12.043-11.111-21.645.927-33.361-1.645-48.011-2.816-16.044 5.757-43.015 7.658-43.35l17.345-3.058c3.117 12.082 10.315 24.734 16.62 37.376z"/>
            </g>
            <g>
                <path fill="#EEC7A4" d="M455.64 95.666c2.386-3.57 3.783-7.756 2.924-12.15-2.475-12.66-20.115-7.642-22.823-.767-2.707 6.876-.283 23.175 4.38 23.771 1.86.238 5.562-1.359 9.186-4.168l-.347 17.462 14.49-1.78-7.81-22.368z"/>
                <path fill="#191847" d="M434.729 85.811c.04-.853.278-1.824.464-2.649.24-1.064.679-2.05 1.18-2.99a21.446 21.446 0 0 1 3.501-4.82c2.494-2.572 5.86-4.292 9.376-4.299a10.156 10.156 0 0 1 5.135 1.368c1.428.831 2.864 2.137 4.567 2.035 1.855-.112 3.344-1.925 4.698-3.097 1.527-1.322 3.197-2.354 5.103-2.91 3.192-.93 6.386-.217 8.956 2.149 2.734 2.518 4.977 6.427 3.866 10.345-.207.728-.51 1.358-.99 1.908-.439.504-1.135 1.07-1.248 1.803-.12.78.634 1.673.964 2.323.473.93.888 1.918.915 2.99.044 1.76-.858 3.555-1.885 4.841-1.045 1.31-2.425 2.156-3.95 2.655-1.017.333-2.068.577-3.138.63-.53.027-1.013-.06-1.536-.113-.51-.051-.77.113-1.159.433-1.8 1.489-3.841 2.23-6.12 2.321-1.923.077-4.174-.11-5.885-1.208-1.901-1.22-2.11-3.2-1.962-5.36-.405.264-1.578.54-.97-.386.24-.367.756-.568 1.093-.808.393-.28.784-.626 1.065-1.038 1.135-1.662-.572-4.55-2.292-4.85-2.555-.445-2.684 3.066-4.333 4.173-.949.637-2.092.066-2.938-.555-1.132-.833-1.98-2.017-2.735-3.235-.623-1.003-1.213-2.024-1.844-3.02-.295-.466-1.277-1.763-.938-2.371-1.807-.132-3.684.835-5.087 1.972-.58.47-1.005.962-1.255 1.696-.054.158-.156.619-.35.661-.36.079-.278-.38-.268-.594"/>
                <path fill="#D4A181" d="M479.479 166.746c-1.246 14.987-69.786 59.951-70.199 61.193-.183.552 6.65 17.838 20.496 51.858l-5.973 2.478c-21.446-35.942-31.582-55.85-30.407-59.724 1.681-5.548 19.494-23.955 53.438-55.223l32.645-.582z"/>
                <path fill="#2F3676" d="M427.737 272.384l-9.8 3.837c-20.159-23.706-27.894-43.41-26.264-53.54 1.087-6.754 18.97-25.22 53.653-55.4l34.829-.567c-1.744 34.756-65.425 61.542-66.295 63.036-.87 1.494 7.226 15.856 13.877 42.634z"/>
                <path fill="#E4E4E4" d="M432.72 279.204c.932 1.152 1.527 2.084 1.786 2.795.374 1.027.748 2.59 1.122 4.687l-32.28 11.748c-1.844-2.456-1.902-4.123-.175-5.001a190.987 190.987 0 0 0 4.287-2.236l12.291-11.844a1 1 0 0 1 1.431.044l1.542 1.683c1.956.169 3.457.062 4.503-.318.72-.262 1.582-.854 2.587-1.774a2 2 0 0 1 2.906.216z"/>
                <path fill="#D4A181" d="M471.98 167.652L503.495 243l30.975 63.7h-7.308l-79.954-139.048z"/>
                <path fill="#E4E4E4" d="M535.206 304.589c.482 1.401.723 2.48.723 3.236 0 1.094-.183 2.69-.549 4.789h-34.35c-.893-2.94-.378-4.526 1.545-4.76 1.924-.235 3.521-.446 4.793-.635l15.601-6.926a1 1 0 0 1 1.33.531l.873 2.108c1.78.828 3.227 1.241 4.34 1.241.766 0 1.778-.26 3.038-.782a2 2 0 0 1 2.656 1.198z"/>
                <path fill="#5C63AB" d="M531.673 293.467l-16.238 3.033c-12.556-18.383-65.1-93.76-70.862-128.848h36.15c19.24 25.366 38.982 107.128 50.95 125.815z"/>
                <g>
                    <path fill="#EEC7A4" d="M416.878 157.445l-23.043-6.81c-4.295-3.305-8.348-5.72-12.158-7.244-1.109-.205-2.944-.082-.654 2.487 2.29 2.57 4.582 5.374 3.925 6.454-.656 1.08-3.041.27-3.734 1.98-.462 1.14 3.49 1.95 11.856 2.43l17.909 10.406 5.899-9.703zm88.765-8.244l-12.074 3.945c15.256 21.391 23.42 32.719 24.492 33.983 2.411 2.845 1.212 8.748.878 11.82 4.517.471 1.982-5.85 7.708-5.168 5.226.622 9.92 3.29 14.122-1.601.516-.602.739-2.31-1.349-2.916-5.2-1.51-12.985-4.577-14.358-5.97-1.871-1.9-8.344-13.265-19.419-34.093z"/>
                    <path fill="#EE918A" d="M454.027 109.094l-5.327-.243c-10.033 12.303-11.466 39.067-18.617 43.467-6.761 4.16-17.302 2.238-29.895-.559l-2.697 8.62c12.4 10.38 36.973 17.413 45.75 10.59 14.032-10.91 13.574-43.645 10.786-61.875z"/>
                    <path fill="#DDE3E9" d="M484.748 171.15l-46.193 5.672c-2.11.26-2.083-2.802-1.965-4.36 1.368-17.977 12.792-38.578 9.726-63.553l13.07-3.701c13.173 16.167 19.633 37.27 25.362 65.942z"/>
                    <path fill="#FFA29B" d="M487.175 152.82c11.478 15.634 20.878 26.75 28.198 33.349l9.453-3.064c-10.932-37.467-32.458-63.468-64.58-78.003l-.152.02-5.123.628c-7.014 41.772-7.014 69.031-.002 81.778l41.582-5.106c-1.862-9.728-5.245-19.842-9.376-29.601z"/>
                </g>
            </g>
        </g>
    </g>
</svg>
